<svg xmlns="http://www.w3.org/2000/svg" width="24" height="24" viewBox="0 0 24 24">
    <g fill="none" fill-rule="evenodd">
        <g>
            <g>
                <g transform="translate(-711 -246) translate(422 246) translate(289)">
                    <circle cx="12" cy="12" r="12" fill="#CD163F"/>
                    <g fill="#FFF" fill-rule="nonzero" transform="translate(5.143 7.714)">
                        <path d="M12.573 1.36c-.631 0-1.143.504-1.143 1.128 0 .118.02.236.057.348l-.927.582c-.61.384-1.415.257-1.873-.296l-.909-1.098c.145-.192.223-.425.223-.665C8.001.736 7.49.23 6.858.23S5.715.736 5.715 1.36c0 .239.078.472.223.664l-.909 1.098c-.458.552-1.262.68-1.873.296l-.927-.582c.038-.112.057-.23.057-.348 0-.624-.512-1.129-1.143-1.13C.512 1.359 0 1.865 0 2.489c0 .585.453 1.073 1.043 1.124l.676 4.002c.022.136.142.235.281.235h9.716c.14 0 .259-.1.282-.235l.675-4.002c.629-.056 1.093-.604 1.037-1.225-.053-.581-.546-1.027-1.137-1.028z"/>
                        <ellipse cx="7.01" cy="7.697" rx="4.876" ry="1.371"/>
                        <path d="M7.01 9.373c-2.575 0-5.181-.575-5.181-1.676 0-1.1 2.606-1.676 5.18-1.676 2.575 0 5.181.575 5.181 1.676 0 1.1-2.606 1.676-5.18 1.676zm0-2.793c-3.024 0-4.606.726-4.606 1.117S3.986 8.814 7.01 8.814c3.023 0 4.605-.726 4.605-1.117S10.033 6.58 7.01 6.58z"/>
                    </g>
                </g>
            </g>
        </g>
    </g>
</svg>
