<svg xmlns="http://www.w3.org/2000/svg" width="41" height="44" viewBox="0 0 41 44">
    <defs>
        <linearGradient id="m5dvbqioda" x1="100%" x2="15.399%" y1="38.661%" y2="66.96%">
            <stop offset="0%" stop-color="#FFF" stop-opacity="0"/>
            <stop offset="100%"/>
        </linearGradient>
    </defs>
    <g fill="none" fill-rule="evenodd">
        <g>
            <g>
                <path fill="url(#m5dvbqioda)" fill-opacity=".32" d="M15.595 43c16.396-4.914 24.594-8.514 24.594-10.797 0-3.426-6.534-6.203-14.594-6.203C17.535 26 11 28.777 11 32.203c0 2.283 1.532 5.883 4.595 10.797z" transform="translate(-911 -372) translate(911 372)"/>
                <path fill="#CD163F" stroke="#FFF" stroke-width="2" d="M16.054 1c4.157 0 7.92 1.685 10.645 4.41 2.724 2.723 4.41 6.487 4.41 10.644 0 5.648-5.103 14.43-15.056 26.387C6.101 30.482 1 21.7 1 16.054c0-4.157 1.685-7.92 4.41-10.645C8.132 2.685 11.896 1 16.053 1z" transform="translate(-911 -372) translate(911 372)"/>
                <path fill="#FFF" fill-rule="nonzero" d="M16.008 6L7 20.686h18L16.008 6zm2.822 13.309H13.204s-.136 0-.136-.136c0-.017.017-.068.017-.068l1.683-2.754.935 1.513-.442.697c-.017.017-.017.05-.017.068 0 .068.05.136.136.136h1.257c.068 0 .136-.051.136-.136 0-.017 0-.051-.017-.068l-2.26-3.688-.017-.017c-.017-.017-.051-.034-.085-.034-.085 0-.12.068-.12.068l-2.685 4.419H9.737l4.555-7.394c.017-.034.068-.068.119-.068.085 0 .119.068.119.068l4.436 7.207c.017.017.017.034.017.068-.017.05-.068.119-.153.119m-1.088-4.402c-.017-.034-.068-.068-.119-.068-.085 0-.119.068-.119.068l-.255.424-.935-1.512 1.19-1.938s.034-.068.12-.068c.05 0 .084.034.118.068l4.521 7.394h-1.818l-2.703-4.368z" transform="translate(-911 -372) translate(911 372)"/>
            </g>
        </g>
    </g>
</svg>
