<svg width="100" height="100" viewBox="0 0 100 100" fill="none" xmlns="http://www.w3.org/2000/svg">
<path d="M86.5875 22.7875C86.8785 23.0778 87.1094 23.4226 87.2669 23.8023C87.4245 24.1819 87.5056 24.589 87.5056 25C87.5056 25.411 87.4245 25.8181 87.2669 26.1977C87.1094 26.5774 86.8785 26.9222 86.5875 27.2125L42.8375 70.9625C42.5472 71.2535 42.2023 71.4844 41.8227 71.642C41.443 71.7995 41.036 71.8806 40.625 71.8806C40.2139 71.8806 39.8069 71.7995 39.4273 71.642C39.0476 71.4844 38.7028 71.2535 38.4125 70.9625L16.5375 49.0875C15.9507 48.5007 15.621 47.7048 15.621 46.875C15.621 46.0452 15.9507 45.2493 16.5375 44.6625C17.1243 44.0757 17.9201 43.7461 18.75 43.7461C19.5798 43.7461 20.3757 44.0757 20.9625 44.6625L40.625 64.3313L82.1625 22.7875C82.4528 22.4965 82.7976 22.2656 83.1773 22.108C83.5569 21.9505 83.9639 21.8694 84.375 21.8694C84.786 21.8694 85.193 21.9505 85.5727 22.108C85.9523 22.2656 86.2972 22.4965 86.5875 22.7875Z" fill="white"/>
</svg>
