<svg width="18" height="18" viewBox="0 0 18 18" fill="none" xmlns="http://www.w3.org/2000/svg">
<path d="M6.92308 18C6.79346 18.0004 6.66633 17.9615 6.55616 17.8875C6.45639 17.8199 6.37415 17.726 6.31722 17.6144C6.26029 17.5029 6.23054 17.3775 6.23077 17.25V10.035L0.886159 3.6075C0.314157 2.91752 -0.00155105 2.02239 5.73006e-06 1.095V0.75C5.73006e-06 0.551087 0.072945 0.360322 0.202778 0.21967C0.332611 0.0790178 0.508702 0 0.692313 0H17.3077C17.4913 0 17.6674 0.0790178 17.7972 0.21967C17.9271 0.360322 18 0.551087 18 0.75V1.095C18.0016 2.02239 17.6858 2.91752 17.1138 3.6075L11.7692 10.035V14.07C11.77 14.4888 11.6628 14.8996 11.4598 15.256C11.2567 15.6125 10.9659 15.9004 10.62 16.0875L7.23462 17.9175C7.13816 17.971 7.03145 17.9993 6.92308 18ZM1.41924 1.5C1.48784 1.91045 1.66042 2.29216 1.9177 2.6025L7.45616 9.2475C7.56405 9.38834 7.62068 9.56706 7.61539 9.75V16.035L10.0038 14.745C10.1191 14.6821 10.2158 14.5856 10.2831 14.4663C10.3503 14.347 10.3855 14.2098 10.3846 14.07V9.75C10.3851 9.56412 10.4492 9.38505 10.5646 9.2475L16.1031 2.6025C16.3654 2.29392 16.5428 1.91205 16.6154 1.5H1.41924Z" fill="#E03729"/>
</svg>
