<svg width="25" height="25" viewBox="0 0 25 25" fill="none" xmlns="http://www.w3.org/2000/svg">
<path d="M22.583 22.8616L20.9258 24.5186C20.6298 24.8131 19.763 24.9993 19.7371 24.9993C14.491 25.0435 9.44031 22.9837 5.72857 19.2713C2.00618 15.5498 -0.0560691 10.4794 0.00116009 5.21835C0.00116009 5.21527 0.191159 4.37304 0.486436 4.08007L2.14359 2.42148C2.75168 1.8142 3.91589 1.53955 4.7315 1.81113L5.08093 1.92861C5.89654 2.20019 6.74873 3.10043 6.97457 3.92895L7.80923 6.99129C8.0358 7.82137 7.73139 9.00232 7.12409 9.60959L6.01628 10.7174C7.10275 14.7441 10.2606 17.901 14.2852 18.9889L15.393 17.8811C16.0003 17.2738 17.1844 16.9702 18.0145 17.196L21.0771 18.0322C21.9041 18.2565 22.8044 19.1079 23.0775 19.9242L23.1935 20.2736C23.4649 21.0901 23.1903 22.2543 22.583 22.8616ZM14.0623 12.4996H15.6249C15.6249 10.7739 14.2256 9.37473 12.4998 9.37473V10.9372C13.3611 10.9372 14.0623 11.639 14.0623 12.4996ZM20.3124 12.4996C20.3124 8.18455 16.8151 4.68734 12.4998 4.68734V6.24984C15.9468 6.24984 18.7499 9.05432 18.7499 12.4996H20.3124ZM12.4998 0V1.56245C18.5302 1.56245 23.4375 6.46951 23.4375 12.4996H25C25 5.59676 19.403 0 12.4998 0Z" fill="#E03729"/>
</svg>
