<svg width="100" height="100" viewBox="0 0 100 100" fill="none" xmlns="http://www.w3.org/2000/svg">
<path d="M80.9998 43.75H56.4248V39.4312L72.5436 16.1812V15.8437H56.8623V10.425H80.5186V14.7437L64.4748 37.9937V38.3312H81.0061L80.9998 43.75Z" fill="black"/>
<path fill-rule="evenodd" clip-rule="evenodd" d="M63.0123 78.9312L60.3998 87.5H53.7373L64.9186 54.175H72.6311L83.7623 87.5H76.7623L74.1436 78.9312H63.0123ZM72.8248 74.025L68.7498 60.55H68.4561L64.3811 74.025H72.8248Z" fill="black"/>
<path d="M28.125 84.375C28.125 85.2038 27.7958 85.9987 27.2097 86.5847C26.6237 87.1708 25.8288 87.5 25 87.5C24.1712 87.5 23.3764 87.1708 22.7903 86.5847C22.2043 85.9987 21.875 85.2038 21.875 84.375V23.1687L14.7125 30.3375C14.422 30.628 14.0771 30.8585 13.6974 31.0158C13.3178 31.173 12.9109 31.2539 12.5 31.2539C12.0891 31.2539 11.6823 31.173 11.3026 31.0158C10.923 30.8585 10.5781 30.628 10.2875 30.3375C9.99699 30.0469 9.76651 29.702 9.60927 29.3224C9.45203 28.9428 9.37109 28.5359 9.37109 28.125C9.37109 27.7141 9.45203 27.3072 9.60927 26.9276C9.76651 26.548 9.99699 26.203 10.2875 25.9125L22.7875 13.4188L22.8313 13.375C23.4203 12.8074 24.2085 12.4934 25.0264 12.5004C25.8444 12.5074 26.6271 12.8349 27.2063 13.4125L39.7063 25.9125C39.9968 26.2026 40.2274 26.5472 40.3848 26.9264C40.5422 27.3056 40.6234 27.7122 40.6237 28.1228C40.6239 28.5334 40.5434 28.94 40.3865 29.3195C40.2296 29.699 39.9996 30.0438 39.7094 30.3344C39.4193 30.6249 39.0747 30.8555 38.6955 31.0129C38.3163 31.1703 37.9097 31.2514 37.4991 31.2517C37.0885 31.252 36.6819 31.1714 36.3024 31.0146C35.9229 30.8577 35.5781 30.6276 35.2875 30.3375L28.125 23.1687V84.375Z" fill="black"/>
</svg>
