<svg width="27" height="27" viewBox="0 0 27 27" fill="none" xmlns="http://www.w3.org/2000/svg">
<path opacity="0.639216" d="M14.6667 18.8333C14.6667 19.187 14.5262 19.5261 14.2761 19.7761C14.0261 20.0262 13.687 20.1667 13.3333 20.1667C12.9797 20.1667 12.6406 20.0262 12.3905 19.7761C12.1405 19.5261 12 19.187 12 18.8333C12 18.4797 12.1405 18.1406 12.3905 17.8905C12.6406 17.6405 12.9797 17.5 13.3333 17.5C13.687 17.5 14.0261 17.6405 14.2761 17.8905C14.5262 18.1406 14.6667 18.4797 14.6667 18.8333Z" fill="black"/>
<path opacity="0.639216" fill-rule="evenodd" clip-rule="evenodd" d="M13.3333 6.83337C13.687 6.83337 14.0261 6.97385 14.2761 7.2239C14.5262 7.47395 14.6667 7.81309 14.6667 8.16671V14.8334C14.6667 15.187 14.5262 15.5261 14.2761 15.7762C14.0261 16.0262 13.687 16.1667 13.3333 16.1667C12.9797 16.1667 12.6406 16.0262 12.3905 15.7762C12.1405 15.5261 12 15.187 12 14.8334V8.16671C12 7.81309 12.1405 7.47395 12.3905 7.2239C12.6406 6.97385 12.9797 6.83337 13.3333 6.83337Z" fill="black"/>
<path opacity="0.639216" fill-rule="evenodd" clip-rule="evenodd" d="M13.3333 2.83335C10.5044 2.83335 7.79125 3.95716 5.79086 5.95755C3.79047 7.95794 2.66667 10.671 2.66667 13.5C2.66667 16.329 3.79047 19.0421 5.79086 21.0425C7.79125 23.0429 10.5044 24.1667 13.3333 24.1667C16.1623 24.1667 18.8754 23.0429 20.8758 21.0425C22.8762 19.0421 24 16.329 24 13.5C24 10.671 22.8762 7.95794 20.8758 5.95755C18.8754 3.95716 16.1623 2.83335 13.3333 2.83335ZM0 13.5C0 6.13602 5.96933 0.166687 13.3333 0.166687C20.6973 0.166687 26.6667 6.13602 26.6667 13.5C26.6667 20.864 20.6973 26.8334 13.3333 26.8334C5.96933 26.8334 0 20.864 0 13.5Z" fill="black"/>
</svg>
